# xmcd
#
# Track frame offsets:
#	150
#	20457
#	38713
#	56879
#	76806
#	97345
#	114954
#	140196
#	158255
#	183731
#
# Disc length: 2633 seconds
#
# Revision: 1
# Processed by: cddbd v1.5.1PL0 Copyright (c) Steve Scherf et al.
# Submitted via: audiograbber 1.83.01
#
DISCID=810a470a
DTITLE=Ferdi Tayfur - Menekseler Laleler
DYEAR=1900
DGENRE=
TTITLE0=Menekseler Laleler
TTITLE1=Bos ver diyorlar
TTITLE2=Isyan
TTITLE3=Aglamayan ne bilir
TTITLE4=Aksam günesi
TTITLE5=Yakti beni
TTITLE6=Benim hayatim
TTITLE7=Gitme yarim
TTITLE8=Iki gözüm
TTITLE9=Yasli gözlerle
EXTD=
EXTT0=
EXTT1=
EXTT2=
EXTT3=
EXTT4=
EXTT5=
EXTT6=
EXTT7=
EXTT8=
EXTT9=
PLAYORDER=
